<?xml version="1.0" encoding="utf-8"?>
<!-- Generator: Adobe Illustrator 26.3.1, SVG Export Plug-In . SVG Version: 6.00 Build 0)  -->
<svg version="1.1" id="Calque_1" xmlns="http://www.w3.org/2000/svg" xmlns:xlink="http://www.w3.org/1999/xlink" x="0px" y="0px"
	 viewBox="0 0 792 612" style="enable-background:new 0 0 792 612;" xml:space="preserve">
<style type="text/css">
	.st0{fill:none;}
	.st1{fill:#FFFFFF;}
</style>
<g>
	<g>
		<rect x="19.5" y="160.3" class="st0" width="755.97" height="264.34"/>
	</g>
</g>
<g>
	<path class="st1" d="M402.2,281.41c-2.43-2.8-3.64-7.15-3.64-13.05v-19.67l-3.72-0.64v-2.68h13.99v2.68l-4.45,0.7v20.2
		c0,4.86,0.85,8.36,2.54,10.5c1.69,2.14,4.13,3.22,7.31,3.22c3.18,0,5.56-1.14,7.15-3.43c1.59-2.29,2.38-5.61,2.38-9.97v-20.53
		l-4.4-0.7v-2.68h12.21v2.68l-3.83,0.64V269c0,5.57-1.29,9.74-3.88,12.49c-2.59,2.75-6.03,4.13-10.32,4.13
		C408.41,285.61,404.62,284.21,402.2,281.41z"/>
	<path class="st1" d="M435.89,259.57l-3.86-0.96v-2.89l7.66-0.96h0.16l1.13,0.96v2.25l-0.05,1.29c1.29-1.14,2.98-2.18,5.09-3.11
		c2.11-0.93,4.13-1.39,6.06-1.39c2.25,0,3.99,0.43,5.23,1.29c1.23,0.86,2.1,2.17,2.6,3.94c0.5,1.77,0.75,4.15,0.75,7.15v15.01
		l3.75,0.38v2.68h-12.7v-2.63l3.32-0.43v-15.06c0-2.11-0.14-3.76-0.43-4.96c-0.29-1.2-0.82-2.09-1.61-2.68
		c-0.79-0.59-1.93-0.88-3.43-0.88c-1.29,0-2.66,0.32-4.13,0.96c-1.47,0.64-2.77,1.39-3.91,2.25v20.31l3.64,0.48v2.63h-12.65v-2.63
		l3.38-0.48V259.57z"/>
	<path class="st1" d="M472,259.57l-4.07-0.96v-2.84l8.31-1.02h0.11l1.23,0.96v26.42l4.29,0.43v2.63h-14.2v-2.63l4.34-0.48V259.57z
		 M471.57,249.12c-0.57-0.64-0.86-1.47-0.86-2.47c0-1.14,0.35-2.09,1.04-2.84c0.7-0.75,1.65-1.12,2.87-1.12
		c1.21,0,2.11,0.32,2.68,0.96c0.57,0.64,0.86,1.47,0.86,2.47c0,1.22-0.35,2.18-1.04,2.89s-1.67,1.07-2.92,1.07h-0.05
		C473,250.08,472.14,249.76,471.57,249.12z"/>
	<path class="st1" d="M481.02,255.44h12.43v2.52l-3.8,0.7l5.41,15.43l2.25,6.81l1.93-6.59l5.41-15.65l-3.64-0.7v-2.52h10.88v2.52
		l-2.79,0.7l-10.34,26.96h-4.56l-10.77-26.96l-2.41-0.7V255.44z"/>
	<path class="st1" d="M514.96,281.54c-2.27-2.82-3.4-6.59-3.4-11.31c0-3.11,0.59-5.84,1.77-8.2c1.18-2.36,2.83-4.18,4.96-5.47
		c2.13-1.29,4.55-1.93,7.26-1.93c3.32,0,5.9,0.92,7.74,2.76c1.84,1.84,2.81,4.47,2.92,7.9c0,2.18-0.13,3.84-0.38,4.99H517.4
		c0.07,3.54,0.89,6.39,2.46,8.55c1.57,2.16,3.8,3.24,6.7,3.24c1.43,0,2.92-0.26,4.47-0.78c1.55-0.52,2.76-1.13,3.62-1.85l1.02,2.36
		c-1.04,1.07-2.57,2-4.61,2.79c-2.04,0.79-4.11,1.18-6.22,1.18C520.53,285.78,517.23,284.36,514.96,281.54z M530.32,267.45
		c0.11-0.75,0.16-1.52,0.16-2.3c-0.04-2.32-0.53-4.15-1.47-5.49c-0.95-1.34-2.44-2.01-4.47-2.01c-2.07,0-3.72,0.75-4.96,2.25
		c-1.23,1.5-1.94,4.02-2.12,7.56H530.32z"/>
	<path class="st1" d="M538.83,282.56l4.02-0.32v-22.67l-3.86-0.96v-2.89l7.4-0.96h0.11l1.18,0.96v0.96l-0.16,4.18h0.16
		c0.36-0.61,1-1.39,1.93-2.36c0.93-0.96,2.13-1.85,3.59-2.65c1.46-0.81,3.05-1.21,4.77-1.21c0.71,0,1.3,0.09,1.77,0.27v6
		c-0.25-0.18-0.65-0.35-1.21-0.51c-0.55-0.16-1.17-0.24-1.85-0.24c-2.97,0-5.72,0.91-8.25,2.73v19.29l6.81,0.43v2.57h-16.4V282.56z"
		/>
	<path class="st1" d="M567.47,280.9c0.36,0.54,1.12,1.02,2.28,1.45c1.16,0.43,2.38,0.64,3.67,0.64c2.04,0,3.54-0.39,4.5-1.18
		c0.96-0.78,1.45-1.88,1.45-3.27c0-0.96-0.3-1.8-0.91-2.52c-0.61-0.71-1.46-1.35-2.55-1.9c-1.09-0.55-2.65-1.22-4.69-2.01
		c-2.75-1.04-4.76-2.28-6.03-3.72c-1.27-1.45-1.9-3.35-1.9-5.71c0-1.57,0.47-2.95,1.42-4.12c0.95-1.18,2.25-2.1,3.91-2.76
		c1.66-0.66,3.51-0.99,5.55-0.99c1.64,0,3.08,0.13,4.31,0.38c1.23,0.25,2.22,0.5,2.97,0.75c0.75,0.25,1.25,0.41,1.5,0.48v6.65h-3.27
		l-1.07-3.97c-0.21-0.43-0.79-0.79-1.71-1.1c-0.93-0.3-1.97-0.45-3.11-0.45c-1.61,0-2.9,0.36-3.89,1.07
		c-0.98,0.71-1.47,1.68-1.47,2.89c0,1.07,0.26,1.96,0.78,2.65c0.52,0.7,1.17,1.26,1.96,1.69c0.79,0.43,1.86,0.93,3.22,1.5l1.07,0.43
		c2,0.79,3.63,1.54,4.88,2.25c1.25,0.71,2.3,1.65,3.13,2.81c0.84,1.16,1.26,2.58,1.26,4.26c0,2.64-1.03,4.75-3.08,6.32
		c-2.05,1.57-4.87,2.36-8.44,2.36c-1.75,0-3.58-0.24-5.49-0.72c-1.91-0.48-3.47-0.97-4.69-1.47v-6.86h3.48L567.47,280.9z"/>
	<path class="st1" d="M592,259.57l-4.07-0.96v-2.84l8.31-1.02h0.11l1.23,0.96v26.42l4.29,0.43v2.63h-14.2v-2.63l4.34-0.48V259.57z
		 M591.58,249.12c-0.57-0.64-0.86-1.47-0.86-2.47c0-1.14,0.35-2.09,1.04-2.84c0.7-0.75,1.65-1.12,2.87-1.12
		c1.21,0,2.11,0.32,2.68,0.96c0.57,0.64,0.86,1.47,0.86,2.47c0,1.22-0.35,2.18-1.04,2.89s-1.67,1.07-2.92,1.07h-0.05
		C593,250.08,592.15,249.76,591.58,249.12z"/>
	<path class="st1" d="M608.09,284.33c-1-0.93-1.5-2.52-1.5-4.77v-20.58h-3.86v-2.41c0.18-0.04,0.68-0.16,1.5-0.38
		c0.82-0.21,1.37-0.41,1.66-0.59c0.57-0.32,1.02-0.97,1.34-1.93c0.29-0.68,0.62-1.77,1.02-3.27c0.39-1.5,0.62-2.39,0.7-2.68h3.16
		l0.11,7.71h8.95v3.54h-8.95v16.45c0,2.04,0.06,3.47,0.19,4.29c0.12,0.82,0.39,1.36,0.8,1.61c0.41,0.25,1.12,0.37,2.12,0.37
		c0.96,0,2.03-0.12,3.19-0.37c1.16-0.25,2.06-0.52,2.71-0.8l0.8,2.41c-0.86,0.64-2.24,1.27-4.15,1.88
		c-1.91,0.61-3.65,0.91-5.23,0.91C610.61,285.72,609.09,285.26,608.09,284.33z"/>
	<path class="st1" d="M626.98,281.54c-2.27-2.82-3.4-6.59-3.4-11.31c0-3.11,0.59-5.84,1.77-8.2c1.18-2.36,2.83-4.18,4.96-5.47
		c2.13-1.29,4.55-1.93,7.26-1.93c3.32,0,5.9,0.92,7.74,2.76c1.84,1.84,2.81,4.47,2.92,7.9c0,2.18-0.13,3.84-0.38,4.99h-18.43
		c0.07,3.54,0.89,6.39,2.46,8.55c1.57,2.16,3.8,3.24,6.7,3.24c1.43,0,2.92-0.26,4.47-0.78c1.55-0.52,2.76-1.13,3.62-1.85l1.02,2.36
		c-1.04,1.07-2.57,2-4.61,2.79c-2.04,0.79-4.11,1.18-6.22,1.18C632.54,285.78,629.25,284.36,626.98,281.54z M642.33,267.45
		c0.11-0.75,0.16-1.52,0.16-2.3c-0.04-2.32-0.53-4.15-1.47-5.49c-0.95-1.34-2.44-2.01-4.47-2.01c-2.07,0-3.72,0.75-4.96,2.25
		c-1.23,1.5-1.94,4.02-2.12,7.56H642.33z M634.83,250.19"/>
	<path class="st1" d="M668.64,284.17c-1.72-1.07-3.09-2.71-4.1-4.93c-1.01-2.21-1.52-4.95-1.52-8.2c0-3.04,0.6-5.8,1.8-8.3
		c1.2-2.5,2.93-4.48,5.18-5.92c2.25-1.45,4.91-2.17,7.97-2.17c1.75,0,3.35,0.2,4.79,0.59v-10.02l-5.26-0.64v-2.3l9.28-0.96h0.15
		l1.13,0.86v40.3h2.99v2.47c-1.1,0.25-2.05,0.45-2.86,0.59c-0.81,0.14-1.66,0.21-2.55,0.21c-0.89,0-1.53-0.16-1.91-0.48
		c-0.38-0.32-0.57-1-0.57-2.04v-1.71c-0.96,1.22-2.23,2.23-3.79,3.06c-1.56,0.82-3.26,1.23-5.08,1.23
		C672.25,285.78,670.36,285.24,668.64,284.17z M680.14,281.03c1.17-0.63,2.04-1.35,2.63-2.17v-19.61c-0.28-0.43-0.92-0.81-1.93-1.15
		c-1.01-0.34-2.09-0.51-3.22-0.51c-2.68,0-4.82,1.06-6.42,3.19c-1.6,2.13-2.4,5.41-2.4,9.84c0,3.86,0.7,6.72,2.11,8.57
		c1.41,1.86,3.23,2.79,5.47,2.79C677.71,281.97,678.97,281.66,680.14,281.03z"/>
	<path class="st1" d="M696.13,281.54c-2.18-2.82-3.27-6.59-3.27-11.31c0-3.11,0.57-5.84,1.7-8.2s2.72-4.18,4.77-5.47
		c2.04-1.29,4.37-1.93,6.99-1.93c3.2,0,5.68,0.92,7.45,2.76c1.77,1.84,2.71,4.47,2.81,7.9c0,2.18-0.12,3.84-0.36,4.99h-17.74
		c0.07,3.54,0.86,6.39,2.37,8.55c1.51,2.16,3.66,3.24,6.44,3.24c1.37,0,2.81-0.26,4.31-0.78c1.5-0.52,2.66-1.13,3.48-1.85l0.98,2.36
		c-1,1.07-2.47,2-4.43,2.79c-1.96,0.79-3.95,1.18-5.98,1.18C701.48,285.78,698.31,284.36,696.13,281.54z M710.9,267.45
		c0.1-0.75,0.15-1.52,0.15-2.3c-0.03-2.32-0.51-4.15-1.42-5.49c-0.91-1.34-2.35-2.01-4.31-2.01c-1.99,0-3.58,0.75-4.77,2.25
		c-1.19,1.5-1.87,4.02-2.04,7.56H710.9z"/>
	<g>
		<path class="st1" d="M396.97,337.36c0.61,0.06,1.47,0.29,2.64,0.7c1.95,0.58,3.76,1.06,5.4,1.41l0,0c1.63,0.35,3.5,0.53,5.57,0.53
			c3.42,0,6.36-0.62,8.76-1.84c2.4-1.22,4.2-2.8,5.37-4.69c1.17-1.9,1.76-3.9,1.76-5.94c0-2.16-0.59-4.05-1.75-5.61
			c-1.17-1.57-2.58-2.86-4.21-3.83c-1.63-0.97-3.77-2.08-6.36-3.29c-2.8-1.29-4.87-2.32-6.14-3.06c-1.29-0.75-2.38-1.66-3.24-2.73
			c-0.87-1.07-1.31-2.42-1.31-4c0-2.18,0.73-3.86,2.17-5.01c1.43-1.15,3.57-1.73,6.34-1.73c1.49,0,2.88,0.18,4.15,0.53
			c1.27,0.35,2.12,0.74,2.54,1.14l0.02,0.02l0.01,0.03l1.19,7.15h3.49l0.35-9.69c-0.55-0.09-1.21-0.26-1.97-0.52
			c-1.79-0.47-3.42-0.84-4.83-1.11c-1.42-0.27-3.06-0.41-4.88-0.41c-2.93,0-5.54,0.49-7.74,1.46c-2.2,0.97-3.91,2.31-5.07,3.99
			c-1.16,1.68-1.76,3.61-1.76,5.73c0,2.36,0.61,4.41,1.82,6.08c1.21,1.69,2.66,3.05,4.3,4.06c1.65,1.01,3.62,2.02,5.85,2.99
			c2.46,1.05,4.43,1.98,5.87,2.77c1.43,0.79,2.59,1.75,3.46,2.85c0.87,1.11,1.31,2.46,1.31,4c0,2.37-0.81,4.26-2.41,5.6
			c-1.59,1.34-3.95,2.02-7.01,2.02c-1.84,0-3.56-0.25-5.11-0.74c-1.55-0.49-2.68-1.06-3.37-1.7l-0.03-0.02l-0.01-0.04l-1.01-7.56
			h-3.67L396.97,337.36z"/>
	</g>
	<path class="st1" d="M432.37,299.52l-4.6-0.59v-2.3l8.93-1.02h0.11l1.21,0.8v12.43l-0.22,4.55c1.17-1.04,2.78-2.02,4.82-2.95
		c2.05-0.93,4.11-1.39,6.19-1.39c2.3,0,4.09,0.43,5.37,1.29c1.28,0.86,2.17,2.17,2.69,3.94c0.51,1.77,0.77,4.15,0.77,7.15v14.95
		l3.84,0.48v2.63h-13.1v-2.63l3.56-0.48v-15.01c0-2.11-0.15-3.76-0.44-4.96c-0.29-1.2-0.84-2.09-1.64-2.68
		c-0.8-0.59-2.01-0.88-3.62-0.88c-1.32,0-2.72,0.32-4.22,0.96c-1.5,0.64-2.81,1.39-3.95,2.25v20.31l3.78,0.48v2.63h-12.77v-2.63
		l3.29-0.43V299.52z"/>
	<path class="st1" d="M467.99,335.86c-2.32-2.82-3.48-6.59-3.48-11.31c0-3.11,0.6-5.84,1.81-8.2c1.21-2.36,2.9-4.18,5.07-5.47
		c2.17-1.29,4.65-1.93,7.43-1.93c3.4,0,6.04,0.92,7.92,2.76c1.88,1.84,2.88,4.47,2.99,7.9c0,2.18-0.13,3.84-0.38,4.99h-18.86
		c0.07,3.54,0.91,6.39,2.52,8.55c1.61,2.16,3.89,3.24,6.85,3.24c1.46,0,2.99-0.26,4.58-0.78c1.59-0.52,2.82-1.13,3.7-1.85l1.04,2.36
		c-1.06,1.07-2.63,2-4.71,2.79c-2.08,0.79-4.2,1.18-6.36,1.18C473.68,340.09,470.31,338.68,467.99,335.86z M483.69,321.76
		c0.11-0.75,0.16-1.52,0.16-2.3c-0.04-2.32-0.54-4.15-1.51-5.49c-0.97-1.34-2.49-2.01-4.58-2.01c-2.12,0-3.81,0.75-5.07,2.25
		c-1.26,1.5-1.98,4.02-2.16,7.56H483.69z"/>
	<path class="st1" d="M494.01,336.88l4.11-0.32v-22.67l-3.95-0.96v-2.89l7.56-0.96h0.11l1.21,0.96v0.96l-0.16,4.18h0.16
		c0.36-0.61,1.02-1.39,1.97-2.36c0.95-0.96,2.17-1.85,3.67-2.65c1.5-0.81,3.12-1.21,4.88-1.21c0.73,0,1.33,0.09,1.81,0.27v6
		c-0.26-0.18-0.67-0.35-1.23-0.51c-0.57-0.16-1.2-0.24-1.89-0.24c-3.03,0-5.85,0.91-8.44,2.73v19.29l6.96,0.43v2.57h-16.77V336.88z"
		/>
	<path class="st1" d="M515.89,296.63l8.77-1.02h0.11l1.26,0.8v16.13c1.1-1.04,2.4-1.89,3.92-2.57c1.52-0.68,3.21-1.02,5.07-1.02
		c2.19,0,4.19,0.52,6,1.55c1.81,1.04,3.25,2.64,4.33,4.82c1.08,2.18,1.62,4.93,1.62,8.25c0,3.07-0.65,5.86-1.95,8.36
		c-1.3,2.5-3.15,4.48-5.56,5.95c-2.41,1.47-5.21,2.2-8.39,2.2c-2.52,0-4.82-0.24-6.91-0.72c-2.08-0.48-3.34-0.92-3.78-1.31v-38.59
		l-4.49-0.59V296.63z M528.91,313.7c-1.19,0.63-2.15,1.33-2.88,2.12v19.72c0.22,0.5,0.85,0.9,1.89,1.21
		c1.04,0.3,2.22,0.45,3.54,0.45c2.81,0,5.08-1.11,6.8-3.32c1.72-2.22,2.58-5.45,2.58-9.7c0-3.82-0.75-6.68-2.25-8.58
		c-1.5-1.89-3.44-2.84-5.81-2.84C531.38,312.76,530.09,313.07,528.91,313.7z"/>
	<path class="st1" d="M550.6,336.88l4.11-0.32v-22.67l-3.95-0.96v-2.89l7.56-0.96h0.11l1.21,0.96v0.96l-0.16,4.18h0.16
		c0.36-0.61,1.02-1.39,1.97-2.36c0.95-0.96,2.17-1.85,3.67-2.65c1.5-0.81,3.12-1.21,4.88-1.21c0.73,0,1.33,0.09,1.81,0.27v6
		c-0.26-0.18-0.67-0.35-1.23-0.51c-0.57-0.16-1.2-0.24-1.89-0.24c-3.03,0-5.85,0.91-8.44,2.73v19.29l6.96,0.43v2.57H550.6V336.88z"
		/>
	<path class="st1" d="M576.98,316.19c1.35-2.36,3.13-4.15,5.34-5.39c2.21-1.23,4.58-1.85,7.1-1.85c4.6,0,8.07,1.43,10.39,4.29
		c2.32,2.86,3.48,6.61,3.48,11.25c0,3.25-0.68,6.06-2.03,8.41c-1.35,2.36-3.13,4.15-5.34,5.36c-2.21,1.22-4.58,1.82-7.1,1.82
		c-4.6,0-8.07-1.43-10.39-4.29c-2.32-2.86-3.48-6.61-3.48-11.25C574.95,321.33,575.63,318.55,576.98,316.19z M594.96,333.98
		c1.35-2.04,2.03-5.06,2.03-9.06c0-3.97-0.62-7.11-1.86-9.43c-1.24-2.32-3.23-3.48-5.97-3.48c-2.52,0-4.47,1.02-5.84,3.06
		c-1.37,2.04-2.06,5.06-2.06,9.06c0,3.97,0.64,7.11,1.92,9.43c1.28,2.32,3.27,3.48,5.97,3.48
		C591.67,337.04,593.6,336.02,594.96,333.98z"/>
	<path class="st1" d="M610.07,316.19c1.35-2.36,3.13-4.15,5.34-5.39c2.21-1.23,4.58-1.85,7.1-1.85c4.6,0,8.07,1.43,10.39,4.29
		c2.32,2.86,3.48,6.61,3.48,11.25c0,3.25-0.68,6.06-2.03,8.41c-1.35,2.36-3.13,4.15-5.34,5.36c-2.21,1.22-4.58,1.82-7.1,1.82
		c-4.6,0-8.07-1.43-10.39-4.29c-2.32-2.86-3.48-6.61-3.48-11.25C608.04,321.33,608.72,318.55,610.07,316.19z M628.05,333.98
		c1.35-2.04,2.03-5.06,2.03-9.06c0-3.97-0.62-7.11-1.86-9.43c-1.24-2.32-3.23-3.48-5.97-3.48c-2.52,0-4.47,1.02-5.84,3.06
		c-1.37,2.04-2.06,5.06-2.06,9.06c0,3.97,0.64,7.11,1.92,9.43c1.28,2.32,3.27,3.48,5.97,3.48
		C624.76,337.04,626.7,336.02,628.05,333.98z"/>
	<path class="st1" d="M643.36,299.52l-4.28-0.59v-2.3l8.72-1.02h0.05l1.21,0.8v26.21l-0.11,3.16l12.66-12.81l-4.11-0.75v-2.47h13.26
		v2.47l-4.33,0.75l-8.06,7.66l10.41,15.81l3.4,0.43v2.63h-13.32v-2.63l3.45-0.48l-7.73-12.43l-5.65,5.47l0.11,2.73v4.23l3.89,0.48
		v2.63h-13.05v-2.63l3.45-0.48V299.52z"/>
	<path class="st1" d="M676.57,335.86c-2.32-2.82-3.48-6.59-3.48-11.31c0-3.11,0.6-5.84,1.81-8.2c1.21-2.36,2.9-4.18,5.07-5.47
		c2.17-1.29,4.65-1.93,7.43-1.93c3.4,0,6.04,0.92,7.92,2.76c1.88,1.84,2.88,4.47,2.99,7.9c0,2.18-0.13,3.84-0.38,4.99h-18.86
		c0.07,3.54,0.91,6.39,2.52,8.55c1.61,2.16,3.89,3.24,6.85,3.24c1.46,0,2.99-0.26,4.58-0.78c1.59-0.52,2.82-1.13,3.7-1.85l1.04,2.36
		c-1.06,1.07-2.63,2-4.71,2.79c-2.08,0.79-4.2,1.18-6.36,1.18C682.26,340.09,678.89,338.68,676.57,335.86z M692.27,321.76
		c0.11-0.75,0.16-1.52,0.16-2.3c-0.04-2.32-0.54-4.15-1.51-5.49c-0.97-1.34-2.49-2.01-4.58-2.01c-2.12,0-3.81,0.75-5.07,2.25
		c-1.26,1.5-1.98,4.02-2.16,7.56H692.27z"/>
	<polygon class="st1" points="634.64,249.22 639.31,242.32 645.14,242.32 645.19,242.47 638.37,249.22 634.87,249.22 	"/>
</g>
<g>
	<path class="st1" d="M240.7,271.09c-3.17-1.87-8.59-3.08-13.82-3.08h-7.1v48.83h7.36c5.2,0,10.59-1.21,13.75-3.1
		c3.43-2.05,6.13-4.91,8.02-8.5c1.89-3.59,2.85-7.73,2.85-12.31v-0.99c0-4.64-0.98-8.81-2.92-12.39
		C246.89,275.98,244.15,273.13,240.7,271.09z"/>
	<path class="st1" d="M78.35,219.21v146.53h286.12V219.21H78.35z M197.17,252.13l-4.24,0.7c-2.84,0.47-4.9,2.89-4.9,5.77v42.08
		c0,13.08-3.16,23-9.39,29.49c-6.24,6.49-14.65,9.78-24.99,9.78c-12.35,0-21.58-3.36-27.45-9.99c-5.85-6.6-8.82-16.96-8.82-30.78
		v-40.76c0-2.77-1.98-5.12-4.72-5.58l-4.17-0.71v-7.12h31.67v7.11l-3.72,0.76c-2.45,0.5-4.23,2.68-4.23,5.19v42.48
		c0,11.19,2.01,19.35,5.97,24.24c3.93,4.87,9.69,7.34,17.1,7.34c7.4,0,13.02-2.63,16.71-7.81c3.72-5.23,5.61-12.97,5.61-23.01
		v-42.97c0-2.66-1.89-4.98-4.49-5.52l-3.33-0.69v-7.11h27.41V252.13z M262.97,293.03c0,5.58-1.31,10.65-3.89,15.06
		c-2.58,4.41-6.28,7.92-10.97,10.44c-5.21,2.8-13.29,3.8-18.63,3.8h-25.24v-5.33l0.43-0.04c1.42-0.12,5.1-0.83,5.1-2.58
		c0,0-0.11-13.87-0.11-21.96s0.11-21.88,0.11-21.88c0-2.59-5.01-2.62-5.06-2.62h-0.47v-5.41h24.9c5.36,0,13.47,0.99,18.72,3.77
		c4.73,2.52,8.47,6.02,11.11,10.4c2.65,4.4,3.99,9.5,3.99,15.17V293.03z M330.38,326.39c-2.5,4.15-6.35,7.6-11.45,10.25
		c-5.09,2.65-11.33,4-18.55,4c-4.34,0-8.3-0.38-11.74-1.14c-2.51-0.55-5.21-1.31-8.05-2.11c-1.05-0.3-2.13-0.6-3.23-0.9
		c-2.63-0.72-5.63-1.5-5.63-1.5l-0.37-0.09l1.04-23.49h8.92l0.01,0.47c0.05,3.79,0.51,14.04,2.03,15.99
		c0.58,0.75,2.23,1.95,6.72,3.41c3.15,1.02,6.65,1.54,10.43,1.54c6.2,0,10.96-1.39,14.15-4.14c3.17-2.73,4.78-6.57,4.78-11.41
		c0-3.13-0.87-5.86-2.59-8.1c-1.75-2.28-4.1-4.26-6.99-5.88c-2.93-1.65-7.02-3.62-12.16-5.86c-4.68-2.09-8.81-4.24-12.27-6.41
		c-3.5-2.2-6.58-5.17-9.15-8.83c-2.59-3.69-3.9-8.18-3.9-13.35c0-4.66,1.27-8.9,3.77-12.59c2.5-3.68,6.14-6.62,10.84-8.74
		c4.67-2.1,10.19-3.17,16.4-3.17c3.85,0,7.31,0.3,10.29,0.88c2.92,0.58,6.32,1.38,10.11,2.39c1.71,0.54,4.22,1.12,4.24,1.12
		l0.38,0.09l-0.78,21.87h-8.56v-0.47c0.03-3.52-0.34-13.08-2.36-15.06c-0.83-0.81-2.42-1.53-5-2.26c-2.56-0.73-5.41-1.1-8.45-1.1
		c-5.62,0-9.92,1.18-12.78,3.52c-2.83,2.31-4.27,5.73-4.27,10.15c0,3.22,0.87,5.94,2.59,8.09c1.76,2.2,3.97,4.1,6.57,5.65
		c2.65,1.57,6.93,3.76,12.73,6.49c5.42,2.58,9.89,4.95,13.31,7.04c3.46,2.11,6.47,4.9,8.96,8.32c2.51,3.44,3.79,7.6,3.79,12.35
		C334.14,317.87,332.87,322.24,330.38,326.39z"/>
</g>
</svg>
